<svg version="1.1" xmlns="http://www.w3.org/2000/svg" xmlns:xlink="http://www.w3.org/1999/xlink" style="" xml:space="preserve" width="512" height="512"><rect id="backgroundrect" width="100%" height="100%" x="0" y="0" fill="none" stroke="none"/>
















<g class="currentLayer" style=""><title>Layer 1</title><path style="" d="M469.344,266.664v-85.328h-42.656v-42.672H384v-21.328h42.688v-64h-64v42.656H320v42.672H192V95.992  h-42.656V53.336h-64v64H128v21.328H85.344v42.672H42.688v85.328H0v149.328h64v-85.328h21.344v85.328H128v42.672h106.688v-64h-85.344  v-21.328h213.344v21.328h-85.344v64H384v-42.672h42.688v-85.328H448v85.328h64V266.664H469.344z M192,245.336h-64v-64h64V245.336z   M384,245.336h-64v-64h64V245.336z" id="svg_1" class="selected" fill="#41e841" fill-opacity="1"/><g id="svg_2">
</g><g id="svg_3">
</g><g id="svg_4">
</g><g id="svg_5">
</g><g id="svg_6">
</g><g id="svg_7">
</g><g id="svg_8">
</g><g id="svg_9">
</g><g id="svg_10">
</g><g id="svg_11">
</g><g id="svg_12">
</g><g id="svg_13">
</g><g id="svg_14">
</g><g id="svg_15">
</g><g id="svg_16">
</g></g></svg>